<?xml version="1.0" encoding="UTF-8"?>
<svg id="Layer_1" xmlns="http://www.w3.org/2000/svg" version="1.1" xmlns:xlink="http://www.w3.org/1999/xlink" viewBox="0 0 1600 1080">
  <!-- Generator: Adobe Illustrator 30.8.1, SVG Export Plug-In . SVG Version: 2.1.4 Build 1)  -->
  <defs>
    <style>
      .st0 {
        fill: #fff8e7;
        stroke: #d89a23;
      }

      .st0, .st1, .st2, .st3, .st4, .st5, .st6, .st7, .st8 {
        stroke-width: 3px;
      }

      .st9 {
        font-size: 14px;
      }

      .st9, .st1, .st10, .st11 {
        fill: #fff;
      }

      .st9, .st12, .st13, .st14, .st15, .st16, .st17, .st18, .st10, .st19, .st20, .st21, .st22, .st23, .st24, .st25, .st11, .st26, .st27, .st28, .st29, .st30, .st31 {
        isolation: isolate;
      }

      .st9, .st14, .st16, .st23, .st24, .st31 {
        font-family: ArialMT, Arial;
      }

      .st1, .st6, .st32 {
        stroke: #a30f16;
      }

      .st33, .st34, .st35, .st36, .st6, .st37, .st21, .st8, .st38, .st39, .st40, .st41, .st29, .st32 {
        fill: none;
      }

      .st33, .st4, .st38 {
        stroke: #b27412;
      }

      .st33, .st42 {
        stroke-width: 6px;
      }

      .st34 {
        stroke: url(#linear-gradient1);
      }

      .st34, .st40 {
        stroke-width: 4px;
      }

      .st12, .st13, .st15, .st10, .st19, .st20, .st22, .st25, .st11, .st26, .st27, .st28, .st29 {
        font-weight: 700;
      }

      .st12, .st13, .st15, .st10, .st20, .st22, .st25, .st11, .st26, .st28 {
        font-family: Arial-BoldMT, Arial;
      }

      .st12, .st15, .st16, .st17, .st20, .st25, .st31 {
        fill: #17203a;
      }

      .st12, .st10, .st25, .st28 {
        font-size: 20px;
      }

      .st43 {
        fill: #ad1017;
      }

      .st35 {
        stroke: #26314a;
      }

      .st35, .st44, .st38, .st41, .st32, .st45 {
        stroke-width: 2px;
      }

      .st2 {
        fill: url(#linear-gradient8);
        stroke: url(#linear-gradient9);
      }

      .st13, .st19, .st26, .st27, .st28 {
        fill: #a30f16;
      }

      .st13, .st20 {
        font-size: 18px;
      }

      .st14 {
        font-size: 11px;
      }

      .st14, .st24 {
        fill: #9a7a3b;
      }

      .st3 {
        fill: url(#linear-gradient6);
        stroke: url(#linear-gradient7);
      }

      .st4 {
        fill: #fffdf7;
        stroke-dasharray: 8 6;
      }

      .st15 {
        font-size: 21px;
      }

      .st5 {
        fill: url(#linear-gradient2);
        stroke: url(#linear-gradient3);
      }

      .st46 {
        fill: #fffdf6;
      }

      .st16, .st23, .st24 {
        font-size: 15px;
      }

      .st17 {
        font-family: Georgia, Georgia;
      }

      .st17, .st22, .st11, .st31 {
        font-size: 17px;
      }

      .st37 {
        stroke: #f4cf72;
      }

      .st19 {
        font-size: 24px;
      }

      .st19, .st27, .st29 {
        font-family: Georgia-Bold, Georgia;
      }

      .st47 {
        opacity: .9;
      }

      .st7 {
        fill: url(#linear-gradient4);
        stroke: url(#linear-gradient5);
      }

      .st21 {
        opacity: .6;
        stroke: #e2a62d;
        stroke-width: 1.4px;
      }

      .st22, .st23 {
        fill: #9b6b17;
      }

      .st8 {
        stroke: #f0c04b;
      }

      .st48 {
        fill: #b27412;
      }

      .st44 {
        stroke: #d59a2a;
      }

      .st25 {
        letter-spacing: .2em;
      }

      .st26 {
        font-size: 13px;
      }

      .st39 {
        stroke: #8f0d13;
        stroke-width: 8px;
      }

      .st42 {
        fill: #fffaf0;
        stroke: #c58b20;
      }

      .st40 {
        stroke: #f3ca63;
      }

      .st49 {
        fill: url(#linear-gradient);
      }

      .st41 {
        stroke: #d6a23b;
        stroke-dasharray: 3 5;
      }

      .st27, .st29 {
        font-size: 44px;
      }

      .st29 {
        stroke: #e1b45a;
        stroke-width: .7px;
      }

      .st30 {
        fill: url(#floral);
        opacity: .8;
      }

      .st45 {
        stroke: #d19a2d;
      }
    </style>
    <linearGradient id="linear-gradient" x1="1505.1" y1="960.2" x2="1506.1" y2="959.2" gradientTransform="translate(-2408094 1037035) scale(1600 -1080)" gradientUnits="userSpaceOnUse">
      <stop offset="0" stop-color="#fffaf0"/>
      <stop offset=".5" stop-color="#f8efd8"/>
      <stop offset="1" stop-color="#fffaf0"/>
    </linearGradient>
    <linearGradient id="linear-gradient1" x1="1505.5" y1="960.2" x2="1505.5" y2="959.2" gradientTransform="translate(-2314691 977552.875) scale(1538 -1018)" gradientUnits="userSpaceOnUse">
      <stop offset="0" stop-color="#fff0a6"/>
      <stop offset=".5" stop-color="#d99b24"/>
      <stop offset="1" stop-color="#9b5d08"/>
    </linearGradient>
    <linearGradient id="linear-gradient2" x1="1505.1" y1="964.7" x2="1506.1" y2="964.7" gradientTransform="translate(-2242379 65681.5078) scale(1490 -68)" gradientUnits="userSpaceOnUse">
      <stop offset="0" stop-color="#8f0d13"/>
      <stop offset=".5" stop-color="#c7191e"/>
      <stop offset="1" stop-color="#8f0d13"/>
    </linearGradient>
    <linearGradient id="linear-gradient3" x1="1505.5" y1="965.1" x2="1505.5" y2="964.1" gradientTransform="translate(-2242379 65681.5078) scale(1490 -68)" gradientUnits="userSpaceOnUse">
      <stop offset="0" stop-color="#fff0a6"/>
      <stop offset=".5" stop-color="#d99b24"/>
      <stop offset="1" stop-color="#9b5d08"/>
    </linearGradient>
    <linearGradient id="linear-gradient4" x1="1505.1" y1="964.6" x2="1506.1" y2="964.6" gradientTransform="translate(-2242379 66583.5078) scale(1490 -68)" gradientUnits="userSpaceOnUse">
      <stop offset="0" stop-color="#8f0d13"/>
      <stop offset=".5" stop-color="#c7191e"/>
      <stop offset="1" stop-color="#8f0d13"/>
    </linearGradient>
    <linearGradient id="linear-gradient5" x1="1505.5" y1="965" x2="1505.5" y2="964" gradientTransform="translate(-2242379 66583.5078) scale(1490 -68)" gradientUnits="userSpaceOnUse">
      <stop offset="0" stop-color="#fff0a6"/>
      <stop offset=".5" stop-color="#d99b24"/>
      <stop offset="1" stop-color="#9b5d08"/>
    </linearGradient>
    <pattern id="floral" x="0" y="0" width="110" height="44" patternTransform="translate(-76 -36.6) scale(1 -1)" patternUnits="userSpaceOnUse" viewBox="0 0 110 44">
      <g>
        <rect class="st36" width="110" height="44"/>
        <g>
          <rect class="st36" width="110" height="44"/>
          <g>
            <rect class="st36" width="110" height="44"/>
            <path class="st21" d="M5,22c20,18,40,18,50,0,10,18,30,18,50,0-20-18-40-18-50,0-10-18-30-18-50,0Z"/>
            <path class="st37" d="M15,22c26.7,14.7,53.3,14.7,80,0-26.7-14.7-53.3-14.7-80,0"/>
          </g>
        </g>
      </g>
    </pattern>
    <linearGradient id="linear-gradient6" x1="1483.8" y1="959.8" x2="1484.8" y2="959.8" gradientTransform="translate(-100847 801025.125) scale(68 -834)" gradientUnits="userSpaceOnUse">
      <stop offset="0" stop-color="#8f0d13"/>
      <stop offset=".5" stop-color="#c7191e"/>
      <stop offset="1" stop-color="#8f0d13"/>
    </linearGradient>
    <linearGradient id="linear-gradient7" x1="1484.4" y1="960.4" x2="1484.4" y2="959.3" gradientTransform="translate(-100847 801025.125) scale(68 -834)" gradientUnits="userSpaceOnUse">
      <stop offset="0" stop-color="#fff0a6"/>
      <stop offset=".5" stop-color="#d99b24"/>
      <stop offset="1" stop-color="#9b5d08"/>
    </linearGradient>
    <linearGradient id="linear-gradient8" x1="1483.8" y1="959.8" x2="1484.8" y2="959.8" gradientTransform="translate(-99425 801025.125) scale(68 -834)" gradientUnits="userSpaceOnUse">
      <stop offset="0" stop-color="#8f0d13"/>
      <stop offset=".5" stop-color="#c7191e"/>
      <stop offset="1" stop-color="#8f0d13"/>
    </linearGradient>
    <linearGradient id="linear-gradient9" x1="1484.4" y1="960.3" x2="1484.4" y2="959.3" gradientTransform="translate(-99425 801025.125) scale(68 -834)" gradientUnits="userSpaceOnUse">
      <stop offset="0" stop-color="#fff0a6"/>
      <stop offset=".5" stop-color="#d99b24"/>
      <stop offset="1" stop-color="#9b5d08"/>
    </linearGradient>
  </defs>
  <rect class="st49" y="0" width="1600" height="1080"/>
  <rect class="st39" x="18" y="18" width="1564" height="1044" rx="4" ry="4"/>
  <rect class="st34" x="31" y="31" width="1538" height="1018" rx="2" ry="2"/>
  <rect class="st32" x="46" y="46" width="1508" height="988"/>
  <rect class="st5" x="55" y="55" width="1490" height="56" rx="8" ry="8"/>
  <rect class="st7" x="55" y="957" width="1490" height="68" rx="8" ry="8"/>
  <rect class="st30" x="70" y="67" width="1460" height="34"/>
  <rect class="st30" x="70" y="969" width="1460" height="44"/>
  <rect class="st3" x="55" y="55" width="68" height="970"/>
  <rect class="st2" x="1477" y="58.7" width="68" height="966.6"/>
  <g class="st47">
    <path class="st40" d="M89,150v780"/>
    <path class="st40" d="M1511,150v780"/>
  </g>
  <g>
    <path class="st8" d="M72,180c11.3-13.3,22.7-13.3,34,0M72,215c11.3-13.3,22.7-13.3,34,0M72,250c11.3-13.3,22.7-13.3,34,0M72,285c11.3-13.3,22.7-13.3,34,0M72,320c11.3-13.3,22.7-13.3,34,0M72,355c11.3-13.3,22.7-13.3,34,0M72,725c11.3-13.3,22.7-13.3,34,0M72,760c11.3-13.3,22.7-13.3,34,0M72,795c11.3-13.3,22.7-13.3,34,0M72,830c11.3-13.3,22.7-13.3,34,0M72,865c11.3-13.3,22.7-13.3,34,0M72,900c11.3-13.3,22.7-13.3,34,0"/>
    <path class="st8" d="M1494,180c11.3-13.3,22.7-13.3,34,0M1494,215c11.3-13.3,22.7-13.3,34,0M1494,250c11.3-13.3,22.7-13.3,34,0M1494,285c11.3-13.3,22.7-13.3,34,0M1494,320c11.3-13.3,22.7-13.3,34,0M1494,355c11.3-13.3,22.7-13.3,34,0M1494,725c11.3-13.3,22.7-13.3,34,0M1494,760c11.3-13.3,22.7-13.3,34,0M1494,795c11.3-13.3,22.7-13.3,34,0M1494,830c11.3-13.3,22.7-13.3,34,0M1494,865c11.3-13.3,22.7-13.3,34,0M1494,900c11.3-13.3,22.7-13.3,34,0"/>
  </g>
  <g>
    <circle class="st48" cx="84" cy="142" r="5"/>
    <circle class="st48" cx="1516" cy="142" r="5"/>
    <circle class="st48" cx="84" cy="938" r="5"/>
    <circle class="st48" cx="1516" cy="938" r="5"/>
  </g>
  <g>
    <circle class="st46" cx="800" cy="101" r="76"/>
    <circle class="st33" cx="800" cy="101" r="76"/>
  </g>
  <circle class="st6" cx="800" cy="101" r="65"/>
  <circle class="st41" cx="800" cy="101" r="57"/>
  <g class="st18">
    <g class="st18">
      <text class="st24" transform="translate(774.3 96)"><tspan x="0" y="0">LOGO</tspan></text>
    </g>
  </g>
  <g class="st18">
    <g class="st18">
      <text class="st14" transform="translate(757.7 118)"><tspan x="0" y="0">INSERT HERE</tspan></text>
    </g>
  </g>
  <g class="st18">
    <g class="st18">
      <text class="st27" transform="translate(159.7 214.5)"><tspan x="0" y="0">PUBLICATION APPROVAL LETTER &amp; DECLARATION</tspan></text>
    </g>
  </g>
  <g>
    <g class="st18">
      <g class="st18">
        <text class="st29" transform="translate(161.2 213.9)"><tspan x="0" y="0">PUBLICATION APPROVAL LETTER &amp; DECLARATION</tspan></text>
      </g>
    </g>
    <g class="st18">
      <g class="st18">
        <text class="st25" transform="translate(368.6 247.9)"><tspan x="0" y="0">Citizen News Contributor — Official Approval &amp; Certification</tspan></text>
      </g>
    </g>
    <path class="st44" d="M594.4,269.9h420"/>
    <path class="st38" d="M784.4,269.9c13.3-12,26.7-12,40,0-13.3,12-26.7,12-40,0"/>
  </g>
  <g>
    <path class="st43" d="M204,289h167c10.5,0,19,8.5,19,19h0c0,10.5-8.5,19-19,19h-167c-10.5,0-19-8.5-19-19h0c0-10.5,8.5-19,19-19Z"/>
    <g class="st18">
      <g class="st18">
        <text class="st10" transform="translate(204.2 315)"><tspan x="0" y="0">REFERENCE NO:</tspan></text>
      </g>
    </g>
    <line class="st35" x1="405" y1="315" x2="740" y2="315"/>
    <g class="st18">
      <g class="st18">
        <text class="st12" transform="translate(1015 314)"><tspan x="0" y="0">DATE:</tspan></text>
      </g>
    </g>
    <line class="st35" x1="1080" y1="315" x2="1405" y2="315"/>
  </g>
  <g>
    <g class="st18">
      <g class="st18">
        <text class="st15" transform="translate(190 362)"><tspan x="0" y="0">TO:</tspan></text>
      </g>
    </g>
    <line class="st35" x1="305" y1="357" x2="1410" y2="357"/>
    <g class="st18">
      <g class="st18">
        <text class="st15" transform="translate(190 406)"><tspan x="0" y="0">SUBJECT:</tspan></text>
      </g>
    </g>
    <line class="st35" x1="305" y1="401" x2="1410" y2="401"/>
  </g>
  <rect class="st0" x="185" y="427.6" width="1230" height="150" rx="4" ry="4"/>
  <g class="st18">
    <g class="st18">
      <text class="st19" transform="translate(650 455.2)"><tspan x="0" y="0">DECLARATION:</tspan></text>
    </g>
  </g>
  <g>
    <g class="st18">
      <g class="st18">
        <text class="st31" transform="translate(303.3 485.4)"><tspan x="0" y="0">— All content submitted including videos, audios, photos, documents is my own.</tspan></text>
      </g>
    </g>
    <g class="st18">
      <g class="st18">
        <text class="st31" transform="translate(303.3 510.4)"><tspan x="0" y="0">— I am fully responsible for its authenticity and accuracy.</tspan></text>
      </g>
    </g>
    <g class="st18">
      <g class="st18">
        <text class="st31" transform="translate(303.3 535.4)"><tspan x="0" y="0">— I agree to all formats, terms and conditions of War of Justice.</tspan></text>
      </g>
    </g>
    <g class="st18">
      <g class="st18">
        <text class="st31" transform="translate(303.3 560.4)"><tspan x="0" y="0">— I request you to publish my submission.</tspan></text>
      </g>
    </g>
  </g>
  <rect class="st1" x="221.6" y="615.5" width="27" height="27"/>
  <g class="st18">
    <g class="st18">
      <text class="st17" transform="translate(270.5 620.7)"><tspan x="0" y="0">I hereby declare the above statement to be true and accurate. I understand that providing false information</tspan></text>
    </g>
  </g>
  <g class="st18">
    <g class="st18">
      <text class="st17" transform="translate(271.1 652.5)"><tspan x="0" y="0">may result in revocation of approval and legal liability.</tspan></text>
    </g>
  </g>
  <g>
    <g class="st18">
      <g class="st18">
        <text class="st12" transform="translate(195 708)"><tspan x="0" y="0">Contributor Name:</tspan></text>
      </g>
    </g>
    <line class="st35" x1="400" y1="703" x2="1395" y2="703"/>
    <g class="st18">
      <g class="st18">
        <text class="st12" transform="translate(195 768)"><tspan x="0" y="0">News Title:</tspan></text>
      </g>
    </g>
    <line class="st35" x1="320" y1="763" x2="1395" y2="763"/>
  </g>
  <g>
    <circle class="st42" cx="408.6" cy="848.6" r="56.4"/>
    <circle class="st6" cx="408.6" cy="848.6" r="46.6"/>
    <path class="st45" d="M357.6,848.6h102.2"/>
    <g class="st18">
      <g class="st18">
        <text class="st26" transform="translate(373.6 841.7)"><tspan x="0" y="0">APPROVED</tspan></text>
      </g>
    </g>
    <g class="st18">
      <g class="st18">
        <text class="st26" transform="translate(381.1 866.2)"><tspan x="0" y="0">VERIFIED</tspan></text>
      </g>
    </g>
  </g>
  <g class="st18">
    <g class="st18">
      <text class="st28" transform="translate(234.4 925)"><tspan x="0" y="0">STATUS: APPROVED • VERIFIED</tspan></text>
    </g>
  </g>
  <rect class="st4" x="700" y="792.3" width="190" height="119.7" rx="6" ry="6"/>
  <g class="st18">
    <g class="st18">
      <text class="st22" transform="translate(732.1 840)"><tspan x="0" y="0">QR / BARCODE</tspan></text>
    </g>
  </g>
  <g class="st18">
    <g class="st18">
      <text class="st23" transform="translate(731 866)"><tspan x="0" y="0">AUTO-GENERATE</tspan></text>
    </g>
  </g>
  <g class="st18">
    <g class="st18">
      <text class="st23" transform="translate(744.8 892)"><tspan x="0" y="0">INSERT HERE</tspan></text>
    </g>
  </g>
  <g class="st18">
    <g class="st18">
      <text class="st13" transform="translate(724 943)"><tspan x="0" y="0">SCAN &amp; VERIFY</tspan></text>
    </g>
  </g>
  <g>
    <g class="st18">
      <g class="st18">
        <text class="st12" transform="translate(1080 818)"><tspan x="0" y="0">Authorized by:</tspan></text>
      </g>
    </g>
    <line class="st35" x1="1030" y1="875" x2="1400" y2="875"/>
    <g class="st18">
      <g class="st18">
        <text class="st20" transform="translate(1132.3345 902)"><tspan x="0" y="0">Signature of Admin</tspan></text>
      </g>
    </g>
    <g class="st18">
      <g class="st18">
        <text class="st16" transform="translate(1091.4771 926)"><tspan x="0" y="0">Chief Content Review, War of Justice</tspan></text>
      </g>
    </g>
  </g>
  <g class="st18">
    <g class="st18">
      <text class="st11" transform="translate(416.4 990)"><tspan x="0" y="0">This is a digitally verified approval letter — Track status through the official verification system</tspan></text>
    </g>
  </g>
  <g class="st18">
    <g class="st18">
      <text class="st9" transform="translate(594.5732 1014)"><tspan x="0" y="0">Official Document • Do not alter or reproduce without authorization</tspan></text>
    </g>
  </g>
</svg>